<?xml version="1.0" encoding="UTF-8"?>
<svg version="1.1" xmlns="http://www.w3.org/2000/svg" width="2000" height="2000">
<path d="M0 0 C1.0415625 0.51191895 2.083125 1.02383789 3.15625 1.55126953 C18.43140821 9.11592036 32.9798906 17.30462915 47 27 C47.65774414 27.44827148 48.31548828 27.89654297 48.99316406 28.35839844 C70.05722182 42.73856396 90.52676449 60.72821589 106 81 C106.48194824 81.62729004 106.96389648 82.25458008 107.46044922 82.90087891 C148.3602528 136.57151552 165.68089341 203.39885068 157.47167969 270.22045898 C153.16592421 301.6107297 144.20216852 332.6176733 130 361 C129.29302979 362.43617676 129.29302979 362.43617676 128.57177734 363.90136719 C117.55065485 386.18297222 104.81395319 406.8049103 89 426 C88.23018799 426.94335205 88.23018799 426.94335205 87.44482422 427.90576172 C74.84687261 443.24717678 60.75549358 457.8961038 45 470 C43.2898568 471.4353464 41.58160544 472.87294906 39.875 474.3125 C27.08517286 484.7439193 13.25603213 493.71792419 -1 502 C-1.6202002 502.3604541 -2.24040039 502.7209082 -2.87939453 503.09228516 C-40.59435768 524.71608223 -84.06382088 536.0519145 -127.08984375 540.40527344 C-130.32900818 540.49666717 -130.32900818 540.49666717 -133 542 C-132.3915625 542.4640625 -131.783125 542.928125 -131.15625 543.40625 C-117.36691036 554.27549419 -105.36855759 566.85306973 -95 581 C-94.40445313 581.80050781 -93.80890625 582.60101562 -93.1953125 583.42578125 C-73.35264387 610.91120024 -57.66708695 641.55422125 -41.94360352 671.5 C-29.1113259 695.93171533 -16.1154001 720.00465988 -0.5 742.80761719 C0.50485999 744.27630903 1.50482392 745.74836202 2.5 747.22363281 C18.35943863 770.71336126 36.64689999 789.09347564 65 796 C65.90234375 796.22429688 66.8046875 796.44859375 67.734375 796.6796875 C85.14223267 800.26944346 106.17731533 799.58777681 122 791 C122.79664063 790.60296875 123.59328125 790.2059375 124.4140625 789.796875 C141.50719428 780.5888102 149.96483004 761.76792702 158 745 C164.87124017 746.17792689 164.87124017 746.17792689 168 748 C169.14840584 750.38395359 169.88173342 752.35631527 170.5625 754.875 C170.86764526 755.93098389 170.86764526 755.93098389 171.17895508 757.00830078 C175.29447557 771.75223724 177.69534352 786.76715795 179 802 C179.11214844 803.25425781 179.22429687 804.50851562 179.33984375 805.80078125 C182.01396639 841.07722096 179.18174394 877.05349146 169 911 C168.77586426 911.74942871 168.55172852 912.49885742 168.32080078 913.27099609 C158.88542737 944.25391247 142.98529205 971.8379466 121.078125 995.67578125 C119.65198117 997.27081053 118.2786047 998.91413451 116.953125 1000.59375 C114.02027327 1004.20702333 110.54444217 1007.00354725 107 1010 C106.13375 1010.76570313 105.2675 1011.53140625 104.375 1012.3203125 C96.46674895 1019.17556273 88.07375331 1024.7950366 79 1030 C78.06510742 1030.53753906 78.06510742 1030.53753906 77.11132812 1031.0859375 C54.82508507 1043.63226692 28.51785419 1050.31435672 3 1051 C2.278125 1051.02046387 1.55625 1051.04092773 0.8125 1051.06201172 C-46.9860151 1052.23563597 -87.41884235 1036.43980585 -122.125 1003.6875 C-124.3290717 1001.6271721 -126.54597664 999.66312633 -128.875 997.75 C-132.68095847 994.52885954 -135.79251203 990.80379199 -139 987 C-139.81339844 986.07445312 -140.62679687 985.14890625 -141.46484375 984.1953125 C-157.54502091 965.79740429 -170.90825846 944.73981341 -182 923 C-184.81907676 926.42907068 -187.34701931 929.93512824 -189.765625 933.65625 C-190.48282715 934.75106689 -191.2000293 935.84588379 -191.93896484 936.97387695 C-192.31543152 937.54901031 -192.69189819 938.12414368 -193.07977295 938.71670532 C-204.89942424 956.72852723 -217.65212768 973.90957966 -232 990 C-232.79921875 990.89847656 -233.5984375 991.79695313 -234.421875 992.72265625 C-235.85359203 994.31976128 -237.29022412 995.91248593 -238.73364258 997.49902344 C-240.15499429 999.06751713 -241.5690998 1000.64264111 -242.97241211 1002.22729492 C-248.56238672 1008.52655941 -254.37515336 1014.5613978 -260.32861328 1020.51391602 C-261.8717353 1022.05923066 -263.40664306 1023.61240446 -264.94140625 1025.16601562 C-271.30324917 1031.5634276 -277.9319489 1037.37781696 -285 1043 C-286.12462615 1043.94718849 -287.24423676 1044.90041394 -288.35546875 1045.86328125 C-305.9035645 1061.03935854 -325.03730947 1074.20135112 -345 1086 C-345.75716309 1086.4542334 -346.51432617 1086.9084668 -347.29443359 1087.37646484 C-401.05656417 1119.47186532 -465.45406695 1141.10244622 -528.39453125 1141.16796875 C-529.54378586 1141.17129715 -530.69304047 1141.17462555 -531.87712097 1141.17805481 C-534.29820358 1141.18308599 -536.71929303 1141.18546432 -539.14038086 1141.18530273 C-542.76493393 1141.18747154 -546.38917315 1141.20562003 -550.01367188 1141.22460938 C-568.90314435 1141.27088319 -587.65645988 1140.38802448 -606.3125 1137.25 C-607.33770752 1137.07936035 -608.36291504 1136.9087207 -609.41918945 1136.73291016 C-639.06313844 1131.62972787 -667.98233887 1123.37249493 -695 1110 C-695.75684082 1109.63503418 -696.51368164 1109.27006836 -697.29345703 1108.89404297 C-720.65091803 1097.57416306 -743.45000937 1082.28477735 -762.375 1064.44921875 C-764.48483458 1062.48066774 -766.62445855 1060.58684507 -768.80859375 1058.703125 C-773.06864177 1054.99119717 -777.07989121 1051.06828595 -781.0625 1047.0625 C-781.73087891 1046.39798828 -782.39925781 1045.73347656 -783.08789062 1045.04882812 C-787.59664227 1040.53131311 -791.86339442 1035.85961388 -796 1031 C-796.77017456 1030.09785767 -796.77017456 1030.09785767 -797.5559082 1029.17749023 C-806.4795505 1018.62535155 -814.42029392 1007.5473547 -822 996 C-822.50917969 995.22785156 -823.01835938 994.45570312 -823.54296875 993.66015625 C-862.61695311 934.09493073 -884.79379288 865.96405627 -896 796 C-896.28931396 794.22423584 -896.28931396 794.22423584 -896.58447266 792.41259766 C-898.81736469 778.51104402 -900.4369867 764.58188804 -901.6875 750.5625 C-901.74843842 749.88559113 -901.80937683 749.20868225 -901.87216187 748.51126099 C-903.60782652 728.9310647 -904.23686588 709.3402043 -904.25 689.6875 C-904.25100708 688.62050873 -904.25201416 687.55351746 -904.25305176 686.45419312 C-904.23805693 662.55883887 -902.95105009 638.80970345 -901 615 C-900.92974609 614.13413269 -900.85949219 613.26826538 -900.78710938 612.37615967 C-893.73908332 526.42688169 -873.72081318 440.88451042 -813 320 C-812.55946289 319.24251465 -812.11892578 318.4850293 -811.66503906 317.70458984 C-793.82716007 287.13509492 -773.74197273 258.12454039 -751 231 C-750.57074219 230.4858252 -750.14148438 229.97165039 -749.69921875 229.44189453 C-738.29811141 215.82078283 -726.09511813 203.01867624 -713.5625 190.4375 C-712.73427734 189.60460449 -711.90605469 188.77170898 -711.05273438 187.91357422 C-706.19604734 183.06960614 -701.22015341 178.44841335 -696 174 C-694.84736087 173.00294554 -693.6950069 172.0055613 -692.54296875 171.0078125 C-685.445977 164.90056563 -678.31481819 158.84627782 -671 153 C-670.05761475 152.24662354 -670.05761475 152.24662354 -669.09619141 151.47802734 C-639.45136818 127.86951188 -607.33305382 106.72248674 -573.4375 89.6875 C-566.00813085 85.93797 -559.70596247 82.34972071 -553.68359375 76.5 C-489.44723082 16.65826452 -394.57334664 -13.95617633 -242.79589844 -35.82080078 C-240.3028547 -35.98058895 -237.81184167 -36.15833806 -235.3203125 -36.33984375 C-157.96999084 -41.52176851 -70.26146219 -34.73954839 0 0 Z M-512 272 C-520.38659323 280.42323877 -527.8388429 289.52837585 -535 299 C-535.44698242 299.58475098 -535.89396484 300.16950195 -536.35449219 300.77197266 C-589.17556827 370.04021606 -616.96788808 457.88942722 -628.25 545.375 C-628.40106201 546.53491455 -628.55212402 547.6948291 -628.70776367 548.88989258 C-631.43374809 571.37887964 -632.31275871 593.86325339 -632.20581055 616.50292969 C-632.19045492 619.85496072 -632.18508226 623.20665895 -632.18563652 626.55870056 C-632.18497507 641.40146134 -631.95160592 656.1860473 -631 671 C-628.76676748 667.05742009 -627.6122524 662.79931209 -626.3046875 658.48828125 C-625.75678554 656.70593876 -625.20876546 654.92363258 -624.66064453 653.14135742 C-624.37078674 652.19457123 -624.08092896 651.24778503 -623.7822876 650.27230835 C-616.17033183 625.4401269 -608.16030034 600.74428402 -600.01751709 576.08184814 C-599.0025728 573.00779249 -597.98882263 569.93334465 -596.97509766 566.85888672 C-584.77503853 529.88559177 -571.97977313 493.1390367 -558.92236328 456.46099854 C-527.41162433 369.03110954 -527.41162433 369.03110954 -502.0625 279.6875 C-501.8962915 279.00382355 -501.73008301 278.32014709 -501.55883789 277.61575317 C-499.50395762 269.40283138 -499.50395762 269.40283138 -499 261 C-502.7284337 261 -509.34058374 269.41625818 -512 272 Z M-344 548 C-366.53329926 633.9890373 -384.56024083 722.33363946 -402.3125 867 C-402.43596802 868.29442017 -402.55943604 869.58884033 -402.68664551 870.92248535 C-404.4189942 889.26524194 -405.81460153 907.61470969 -407 926 C-358.79107344 916.73548981 -310.23182009 891.10551051 -272.796875 859.3671875 C-270.62104526 857.52563328 -268.42790969 855.72623621 -266.203125 853.9453125 C-258.77810699 847.99787042 -251.57138819 841.92606567 -244.6171875 835.43359375 C-242.32419343 833.3014515 -239.99595796 831.23189205 -237.625 829.1875 C-237.01011719 828.64609375 -236.39523437 828.1046875 -235.76171875 827.546875 C-234.5694932 826.50004281 -233.36317109 825.46908579 -232.14453125 824.453125 C-230.20472268 822.80790201 -230.20472268 822.80790201 -228 820 C-228.28873559 814.84780015 -230.29226524 810.25247122 -232.18359375 805.51171875 C-232.86142101 803.78109174 -233.53923618 802.05046 -234.21704102 800.31982422 C-234.57790802 799.40489197 -234.93877502 798.48995972 -235.31057739 797.54730225 C-242.13011638 780.24129313 -248.68847295 762.84951245 -255.0625 745.375 C-289.1330217 647.97087723 -289.1330217 647.97087723 -337 557 C-337.65097656 555.98164062 -338.30195312 554.96328125 -338.97265625 553.9140625 C-340.91130158 550.90401982 -340.91130158 550.90401982 -343 548 C-343.33 548 -343.66 548 -344 548 Z " fill="#000000" transform="translate(1390,411)"/>
<path d="M0 0 C0.33 0.66 0.66 1.32 1 2 C-0.16666667 3.02083333 -1.33333333 4.04166667 -2.5 5.0625 C-3.59634766 6.02542969 -3.59634766 6.02542969 -4.71484375 7.0078125 C-6.15561816 8.26387224 -7.60505819 9.51012467 -9.06640625 10.7421875 C-13.19204372 14.24615357 -16.79545911 17.91385466 -20.29296875 22.04296875 C-21.91260807 23.89980925 -23.60123291 25.60397492 -25.375 27.3125 C-29.98776212 31.87434863 -33.97856422 36.91984823 -38 42 C-38.54140625 42.68094727 -39.0828125 43.36189453 -39.640625 44.06347656 C-46.83083142 53.12679538 -53.83390217 62.19807 -60 72 C-60.70890381 73.11084961 -60.70890381 73.11084961 -61.43212891 74.24414062 C-77.79849814 99.9188509 -91.00374736 126.60291769 -99.42089844 155.98291016 C-99.95160576 157.83143626 -100.50961761 159.67206654 -101.0703125 161.51171875 C-109.71826578 191.3709905 -112.75280807 223.03449471 -112 254 C-109.36 254.33 -106.72 254.66 -104 255 C-103.61368408 254.32235596 -103.22736816 253.64471191 -102.8293457 252.9465332 C-82.18181053 216.78819647 -60.26037157 181.6001216 -33 150 C-32.36191406 149.26007813 -31.72382812 148.52015625 -31.06640625 147.7578125 C-29.95488079 146.47942987 -28.83783641 145.20582112 -27.71484375 143.9375 C-26.48785003 142.55119275 -25.27303077 141.15407217 -24.06640625 139.75 C-9.60263666 123.18964729 7.10809561 109.47012484 27 100 C28.17755859 99.42765625 28.17755859 99.42765625 29.37890625 98.84375 C37.11965925 95.67106945 47.01377945 95.73264227 55.04296875 97.7734375 C61.74494845 100.63267846 65.25167886 105.36131888 68 112 C70.5598563 119.60039809 70.3545856 127.23551156 70.3125 135.1875 C70.30976578 136.24623322 70.30976578 136.24623322 70.30697632 137.32635498 C70.26795769 146.30368943 69.99276834 155.21401471 68.8125 164.125 C68.71171143 164.95153076 68.61092285 165.77806152 68.50708008 166.62963867 C67.40124723 173.69282017 64.06155152 177.55075879 58.5 182 C47.62575362 191.31785707 38.58942481 202.605929 30 214 C29.55446777 214.58330078 29.10893555 215.16660156 28.64990234 215.76757812 C-24.17503091 285.03496092 -51.96771329 372.88807198 -63.25 460.375 C-63.40106201 461.53491455 -63.55212402 462.6948291 -63.70776367 463.88989258 C-64.19647531 467.92169472 -64.61059095 471.95771955 -65 476 C-65.09052643 476.89535461 -65.18105286 477.79070923 -65.27432251 478.7131958 C-66.78122061 494.13176831 -67.11729011 509.37504324 -66.94921875 524.8515625 C-66.94028469 525.77103039 -66.93135063 526.69049828 -66.92214584 527.63782883 C-66.83827444 536.22777609 -66.74271869 544.81736596 -66.58178711 553.40625 C-66.19789915 574.62292338 -66.00131781 593.98383411 -73.06048584 614.26376343 C-74.5635991 618.64142335 -75.80304576 623.08928468 -77.05859375 627.54296875 C-77.42304596 628.80446495 -77.42304596 628.80446495 -77.79486084 630.09144592 C-80.63516138 639.99627851 -82.97240885 650.02112829 -85.30493164 660.05541992 C-86.05977605 663.30078866 -86.82321767 666.54404397 -87.58789062 669.78710938 C-95.1845861 701.08044025 -95.1845861 701.08044025 -100 732.875 C-100.51050728 738.00843434 -101.16178094 743.08305957 -101.9921875 748.17578125 C-103.09153285 755.20424895 -103.67870389 762.21538176 -104.125 769.3125 C-104.18753967 770.29937302 -104.18753967 770.29937302 -104.25134277 771.30618286 C-107.23804699 819.52475117 -106.76234701 877.81872028 -73.20166016 916.45092773 C-50.48678544 941.77836346 -18.18442066 957.19168953 15.74511719 959.22436523 C19.62429644 959.33891582 23.49413952 959.37999375 27.375 959.375 C28.06432617 959.37478851 28.75365234 959.37457703 29.46386719 959.37435913 C48.31668468 959.31715215 66.25666011 956.39282099 84 950 C85.32283356 949.54272826 86.64575188 949.08570165 87.96875 948.62890625 C106.26676419 942.17313257 124.81000837 932.94396699 139.45483398 920.05151367 C142 918 142 918 144.80908203 916.46630859 C149.07132535 913.87406283 152.27334162 911.58344184 153.646698 906.70083618 C154.70930735 899.74315276 154.58854939 892.70860744 154.5625 885.6875 C154.59866463 882.54069171 154.65016237 879.39439699 154.70321655 876.24783325 C154.7368424 874.18402412 154.76410818 872.12010095 154.78482056 870.05612183 C154.91239813 860.29824363 155.8346061 850.68240793 157 841 C157.62229492 840.82460693 158.24458984 840.64921387 158.88574219 840.46850586 C206.70874489 826.924505 252.96487328 805.78657482 291.203125 773.3671875 C293.37895474 771.52563328 295.57209031 769.72623621 297.796875 767.9453125 C305.22269992 761.99722408 312.42750365 755.92195532 319.38671875 749.43359375 C325.1007869 744.11242117 331.06393689 739.07038724 337 734 C340.00187204 739.80439938 342.56000482 745.66376513 344.94140625 751.74609375 C345.69181883 753.64255891 346.44239458 755.53895951 347.19311523 757.43530273 C347.58006561 758.41618866 347.96701599 759.39707458 348.36569214 760.40768433 C359.8061511 789.70767612 359.8061511 789.70767612 373.14453125 818.171875 C373.66345947 819.18258057 374.1823877 820.19328613 374.71704102 821.23461914 C375.70685604 823.14126234 376.71279298 825.03966171 377.73803711 826.92749023 C378.18026611 827.76997314 378.62249512 828.61245605 379.078125 829.48046875 C379.47418945 830.21160889 379.87025391 830.94274902 380.27832031 831.69604492 C381.2752941 834.87887363 380.88956359 836.79144136 380 840 C378.30444336 843.10180664 378.30444336 843.10180664 376.08984375 846.41015625 C375.69072281 847.01085434 375.29160187 847.61155243 374.88038635 848.23045349 C373.57754611 850.18244678 372.25868642 852.1228859 370.9375 854.0625 C370.02601049 855.41404148 369.11455242 856.76560416 368.203125 858.1171875 C357.09393702 874.5082633 345.18222344 890.21679651 332 905 C331.20078125 905.89847656 330.4015625 906.79695313 329.578125 907.72265625 C328.14640797 909.31976128 326.70977588 910.91248593 325.26635742 912.49902344 C323.84500571 914.06751713 322.4309002 915.64264111 321.02758789 917.22729492 C315.43761328 923.52655941 309.62484664 929.5613978 303.67138672 935.51391602 C302.1282647 937.05923066 300.59335694 938.61240446 299.05859375 940.16601562 C292.69675083 946.5634276 286.0680511 952.37781696 279 958 C277.87537385 958.94718849 276.75576324 959.90041394 275.64453125 960.86328125 C258.0964355 976.03935854 238.96269053 989.20135112 219 1001 C218.24283691 1001.4542334 217.48567383 1001.9084668 216.70556641 1002.37646484 C162.94343583 1034.47186532 98.54593305 1056.10244622 35.60546875 1056.16796875 C34.45621414 1056.17129715 33.30695953 1056.17462555 32.12287903 1056.17805481 C29.70179642 1056.18308599 27.28070697 1056.18546432 24.85961914 1056.18530273 C21.23506607 1056.18747154 17.61082685 1056.20562003 13.98632812 1056.22460938 C-4.90314435 1056.27088319 -23.65645988 1055.38802448 -42.3125 1052.25 C-43.33770752 1052.07936035 -44.36291504 1051.9087207 -45.41918945 1051.73291016 C-75.06313844 1046.62972787 -103.98233887 1038.37249493 -131 1025 C-131.75684082 1024.63503418 -132.51368164 1024.27006836 -133.29345703 1023.89404297 C-156.65091803 1012.57416306 -179.45000937 997.28477735 -198.375 979.44921875 C-200.48483458 977.48066774 -202.62445855 975.58684507 -204.80859375 973.703125 C-209.06864177 969.99119717 -213.07989121 966.06828595 -217.0625 962.0625 C-217.73087891 961.39798828 -218.39925781 960.73347656 -219.08789062 960.04882812 C-223.59664227 955.53131311 -227.86339442 950.85961388 -232 946 C-232.51344971 945.39857178 -233.02689941 944.79714355 -233.5559082 944.17749023 C-242.4795505 933.62535155 -250.42029392 922.5473547 -258 911 C-258.50917969 910.22785156 -259.01835938 909.45570313 -259.54296875 908.66015625 C-298.61695311 849.09493073 -320.79379288 780.96405627 -332 711 C-332.28931396 709.22423584 -332.28931396 709.22423584 -332.58447266 707.41259766 C-334.81736469 693.51104402 -336.4369867 679.58188804 -337.6875 665.5625 C-337.74843842 664.88559113 -337.80937683 664.20868225 -337.87216187 663.51126099 C-339.60782652 643.9310647 -340.23686588 624.3402043 -340.25 604.6875 C-340.25100708 603.62050873 -340.25201416 602.55351746 -340.25305176 601.45419312 C-340.23805693 577.55883887 -338.95105009 553.80970345 -337 530 C-336.92974609 529.13413269 -336.85949219 528.26826538 -336.78710938 527.37615967 C-329.73908332 441.42688169 -309.72081318 355.88451042 -249 235 C-248.55946289 234.24251465 -248.11892578 233.4850293 -247.66503906 232.70458984 C-229.82716007 202.13509492 -209.74197273 173.12454039 -187 146 C-186.57074219 145.4858252 -186.14148438 144.97165039 -185.69921875 144.44189453 C-174.29811141 130.82078283 -162.09511813 118.01867624 -149.5625 105.4375 C-148.73427734 104.60460449 -147.90605469 103.77170898 -147.05273438 102.91357422 C-142.19604734 98.06960614 -137.22015341 93.44841335 -132 89 C-130.84736087 88.00294554 -129.6950069 87.0055613 -128.54296875 86.0078125 C-121.445977 79.90056563 -114.31481819 73.84627782 -107 68 C-106.05761475 67.24662354 -106.05761475 67.24662354 -105.09619141 66.47802734 C-82.0485244 48.12334873 -57.61648689 31.56107365 -32 17 C-31.25476074 16.57589844 -30.50952148 16.15179687 -29.74169922 15.71484375 C-19.96976821 10.17459092 -10.10589897 4.90672265 0 0 Z " fill="#4999F5" transform="translate(826,496)"/>
<path d="M0 0 C0.8907019 -0.00295074 1.78140381 -0.00590149 2.69909668 -0.00894165 C17.83503361 -0.02027956 32.21366089 1.20356164 47.0625 4.3125 C48.32578125 4.55097656 49.5890625 4.78945313 50.890625 5.03515625 C53.99837665 5.67431207 57.01258325 6.43890576 60.0625 7.3125 C60.72056641 7.50005859 61.37863281 7.68761719 62.05664062 7.88085938 C77.31546339 12.3284983 92.05158383 18.68214891 104.0625 29.3125 C104.87976562 30.01117187 105.69703125 30.70984375 106.5390625 31.4296875 C127.47794047 49.71166857 142.97251018 75.17060808 145.0625 103.3125 C146.92590612 144.43141862 134.26598178 182.62597935 106.51074219 213.55273438 C104.539666 215.68562484 102.52783843 217.7744998 100.49316406 219.84667969 C99.12835152 221.24503028 97.79375628 222.67268471 96.4609375 224.1015625 C65.34937934 256.71700263 22.0920448 273.44054622 -22.41796875 274.49609375 C-61.46924788 275.04662606 -61.46924788 275.04662606 -68.9375 271.3125 C-69.1348308 265.94228324 -68.38219299 261.17492421 -67.1875 255.9375 C-64.32728455 242.53384582 -62.92671484 228.93179913 -61.39453125 215.32763672 C-60.99137784 211.75886088 -60.56188361 208.19372511 -60.125 204.62890625 C-58.23054018 188.85913629 -57.02897824 173.06333905 -55.93920898 157.22070312 C-55.8795546 156.36051071 -55.81990021 155.5003183 -55.75843811 154.61405945 C-55.64731291 153.00305366 -55.53821702 151.39190597 -55.43162537 149.78059387 C-55.19718804 146.36768736 -54.89727812 143.01132348 -54.4440918 139.61791992 C-53.66555744 133.64837925 -53.47009973 127.63411162 -53.18359375 121.625 C-53.15133005 120.9600779 -53.11906635 120.29515579 -53.08582497 119.61008453 C-52.83868383 114.51134182 -52.60479961 109.41205044 -52.375 104.3125 C-52.3409053 103.56272385 -52.30681061 102.81294769 -52.27168274 102.04045105 C-51.26736463 79.87590806 -50.65041157 57.7514476 -50.6875 35.5625 C-50.68845673 34.3770459 -50.68941345 33.1915918 -50.69039917 31.97021484 C-50.69673568 28.63107878 -50.7126021 25.29219327 -50.734375 21.953125 C-50.73875076 20.9853009 -50.74312653 20.01747681 -50.74763489 19.02032471 C-50.80345137 13.70118871 -51.16822685 8.57716493 -51.9375 3.3125 C-49.79299948 2.990981 -47.64676386 2.6810423 -45.5 2.375 C-44.30503906 2.20097656 -43.11007812 2.02695312 -41.87890625 1.84765625 C-28.01054655 0.17634504 -13.95130702 0.04118263 0 0 Z " fill="#3E8CF2" transform="translate(1149.9375,546.6875)"/>
<path d="M0 0 C1.98 0.495 1.98 0.495 4 1 C3.67 2.65 3.34 4.3 3 6 C1.68 5.67 0.36 5.34 -1 5 C-0.67 3.35 -0.34 1.7 0 0 Z " fill="#132E53" transform="translate(1004,955)"/>
</svg>
